<?xml version="1.0" standalone="no"?>
<!DOCTYPE svg PUBLIC "-//W3C//DTD SVG 20010904//EN"
 "http://www.w3.org/TR/2001/REC-SVG-20010904/DTD/svg10.dtd">
<svg version="1.0" xmlns="http://www.w3.org/2000/svg"
 width="548.000000pt" height="548.000000pt" viewBox="0 0 548.000000 548.000000"
 preserveAspectRatio="xMidYMid meet">

<g transform="translate(0.000000,548.000000) scale(0.100000,-0.100000)"
fill="#131313" stroke="none">
<path d="M1175 4749 c-63 -97 -140 -247 -161 -317 -9 -31 -19 -98 -22 -147 -5
-92 -3 -104 51 -300 16 -57 31 -473 17 -459 -5 5 -25 68 -44 139 -19 72 -45
160 -59 197 -57 158 -185 327 -300 396 -63 38 -169 76 -242 87 l-50 7 62 -59
c39 -37 96 -111 158 -208 117 -181 156 -228 298 -366 l109 -106 33 -103 c41
-124 59 -199 53 -225 -3 -16 -9 -10 -27 25 -70 135 -188 263 -288 312 -120 59
-254 48 -412 -32 -68 -34 -195 -120 -178 -120 4 0 50 11 103 25 53 14 140 28
193 31 l97 7 35 -30 c48 -43 79 -57 204 -92 141 -41 188 -74 234 -164 l34 -67
-22 -267 c-12 -147 -23 -269 -25 -271 -2 -1 -11 16 -21 40 -9 24 -25 52 -36
64 -40 43 -164 354 -141 354 26 -1 94 -117 171 -290 9 -22 10 -20 4 15 -8 55
-42 130 -107 234 -30 49 -63 113 -73 143 l-18 53 -3 -65 c-6 -125 27 -229 153
-479 l76 -150 -4 -228 c-2 -125 -7 -227 -11 -226 -4 1 -34 43 -66 92 -145 221
-282 297 -525 289 l-100 -3 115 -76 c124 -83 208 -127 337 -178 117 -47 167
-82 208 -145 32 -51 35 -61 35 -131 0 -67 2 -76 18 -73 15 3 18 20 24 128 7
145 56 359 102 448 34 66 123 125 266 176 105 38 152 68 207 132 57 67 171
145 236 164 76 21 65 30 -34 30 -83 0 -100 -3 -178 -37 -162 -68 -292 -167
-418 -318 l-42 -50 13 41 c31 92 129 200 264 289 l72 48 0 111 -1 111 -69 -75
c-39 -41 -100 -117 -136 -168 -37 -51 -69 -91 -72 -88 -2 3 -1 21 2 40 9 49
93 172 179 263 40 43 122 135 181 205 59 70 138 155 177 189 38 34 67 64 65
66 -8 8 -260 -118 -319 -160 -113 -81 -202 -197 -253 -330 -26 -68 -53 -117
-40 -72 3 11 10 42 16 68 28 127 112 271 211 360 l59 54 0 176 c0 98 -2 177
-4 177 -7 0 -142 -89 -161 -106 -12 -11 -35 -63 -53 -116 -58 -174 -92 -447
-92 -742 -1 -161 0 -158 -64 -305 -20 -46 -50 -126 -68 -178 -21 -63 -34 -91
-41 -84 -16 16 14 575 44 801 15 116 61 307 99 411 59 163 270 508 408 667 34
39 60 72 56 72 -13 0 -100 -70 -140 -112 -71 -75 -107 -129 -172 -252 -68
-130 -75 -116 -12 26 79 181 215 343 371 444 38 25 69 47 69 49 0 28 -179 -87
-252 -162 -59 -61 -151 -191 -191 -268 -17 -33 -51 -121 -77 -195 -26 -74 -63
-178 -83 -230 -20 -52 -42 -115 -48 -140 l-12 -45 -8 30 c-12 46 -29 298 -29
426 0 122 -3 112 64 208 21 30 32 38 37 29 5 -7 9 -74 9 -148 0 -73 4 -130 8
-125 5 6 26 51 46 100 52 124 116 224 182 285 31 28 54 54 50 57 -4 4 -61 0
-127 -8 -66 -8 -123 -11 -125 -8 -2 4 6 47 17 96 16 62 22 119 21 193 0 104
-23 265 -40 282 -5 5 -29 -21 -57 -63z m62 -106 c15 -128 7 -229 -26 -335 -35
-109 -75 -203 -90 -212 -23 -14 46 468 85 597 11 35 23 15 31 -50z m-92 -108
c-29 -131 -51 -278 -60 -407 -4 -49 -11 -88 -16 -88 -15 0 -41 104 -46 189 -6
92 6 163 43 255 32 79 97 193 101 179 3 -7 -7 -64 -22 -128z m-545 -282 c40
-22 98 -69 150 -122 73 -73 94 -102 139 -193 67 -134 65 -172 -2 -71 -48 72
-181 227 -252 293 -21 19 -2 -8 41 -60 134 -161 265 -352 251 -366 -16 -16
-134 103 -224 226 -76 104 -203 298 -203 309 0 6 -4 11 -10 11 -5 0 -10 5 -10
11 0 17 47 2 120 -38z m155 -662 c37 -19 86 -55 125 -95 90 -92 106 -126 31
-68 -42 34 -124 82 -137 82 -5 0 14 -13 41 -29 54 -31 86 -61 66 -61 -18 0
-161 40 -195 54 -17 7 -49 28 -71 46 l-40 32 -124 -4 c-137 -6 -142 1 -32 43
129 48 237 48 336 0z m722 -312 c-30 -46 -85 -142 -122 -214 -37 -71 -71 -131
-76 -133 -12 -5 -12 -4 12 74 24 77 67 168 110 230 30 44 120 137 126 130 2
-2 -20 -41 -50 -87z m172 -415 c-17 -21 -219 -171 -294 -218 -33 -21 -70 -47
-82 -59 -13 -11 -26 -18 -29 -14 -9 9 109 130 180 185 98 75 265 154 225 106z
m-1084 -404 c86 -14 196 -71 261 -137 31 -30 53 -57 51 -59 -3 -3 -41 19 -84
49 -76 52 -207 110 -276 124 -18 3 -45 12 -62 19 l-30 13 40 1 c22 0 67 -5
100 -10z m40 -73 c140 -57 282 -143 264 -161 -15 -16 -352 149 -391 192 l-23
24 25 -7 c14 -4 70 -26 125 -48z"/>
<path d="M710 3530 c8 -5 20 -10 25 -10 6 0 3 5 -5 10 -8 5 -19 10 -25 10 -5
0 -3 -5 5 -10z"/>
<path d="M3715 4301 c-182 -24 -397 -112 -540 -221 -73 -55 -166 -150 -221
-225 -26 -36 -51 -65 -54 -65 -4 0 -17 26 -30 58 -87 217 -230 332 -485 393
-121 28 -544 51 -633 33 -23 -5 -48 -27 -101 -94 -74 -92 -225 -319 -218 -326
12 -13 108 93 138 152 l34 66 285 -5 c319 -7 380 -16 498 -72 127 -60 229
-187 267 -330 20 -78 20 -271 0 -348 -45 -172 -181 -305 -361 -351 -33 -9
-121 -22 -195 -30 -155 -17 -213 -33 -288 -78 -50 -30 -120 -102 -110 -112 2
-2 38 0 79 4 41 5 152 9 245 10 94 0 211 5 260 11 104 12 246 57 323 101 29
16 55 29 57 27 2 -2 10 -56 19 -120 46 -330 169 -590 377 -798 97 -96 162
-143 287 -206 204 -102 374 -140 627 -139 150 0 183 3 279 27 60 15 110 26
111 25 2 -2 21 -50 44 -108 42 -109 187 -372 271 -494 47 -69 130 -159 130
-142 0 5 -16 34 -35 66 -36 59 -41 79 -26 96 12 12 57 232 72 354 l12 95 72
89 c113 140 184 298 200 446 9 85 -11 70 -26 -19 -11 -71 -42 -157 -88 -249
-36 -71 -60 -85 -31 -17 11 25 17 45 15 45 -2 0 -25 -38 -50 -85 -41 -75 -48
-83 -61 -70 -13 13 -14 51 -4 287 6 150 13 283 15 296 3 13 44 73 90 135 91
121 142 210 170 297 38 121 102 218 180 278 l30 22 -43 -6 c-102 -14 -220 -80
-296 -164 -39 -43 -94 -147 -120 -225 -22 -69 -46 -243 -46 -342 0 -45 -4 -84
-9 -87 -16 -10 -49 108 -60 219 -18 179 -15 210 24 307 83 204 97 338 51 487
-19 61 -26 107 -26 163 0 43 -3 78 -7 78 -16 0 -66 -74 -98 -143 -40 -87 -65
-201 -65 -299 0 -88 23 -244 46 -313 17 -54 44 -235 36 -249 -2 -4 -26 32 -51
81 -70 131 -126 209 -210 291 -77 75 -184 152 -210 152 -9 0 -11 -3 -5 -8 5
-5 46 -39 91 -76 91 -75 155 -142 218 -231 72 -100 170 -307 227 -478 l40
-120 -6 -121 c-19 -355 -56 -635 -102 -766 -23 -66 -44 234 -44 643 l0 309
-35 -30 c-67 -60 -230 -160 -241 -149 -2 2 21 80 52 174 59 184 85 232 157
284 l42 32 -39 -6 c-110 -17 -246 -128 -286 -234 -12 -32 -27 -86 -33 -120 -6
-35 -14 -63 -18 -63 -11 0 -72 154 -72 185 -1 17 11 70 26 119 34 110 43 204
28 276 -16 73 -85 255 -97 254 -18 -3 -74 -193 -87 -295 l-13 -102 -53 71
c-29 40 -73 90 -99 112 -53 47 -193 120 -230 120 -26 0 -26 -1 14 -42 23 -24
63 -81 90 -127 58 -101 145 -196 266 -293 76 -60 94 -81 124 -139 43 -86 43
-102 2 -62 -78 75 -221 138 -323 143 -83 4 -145 0 -145 -8 0 -5 19 -15 43 -23
23 -7 90 -46 149 -86 136 -91 191 -120 286 -144 76 -19 94 -31 89 -59 -7 -42
-330 -66 -491 -36 -187 36 -337 110 -461 228 -165 156 -257 325 -317 578 -29
126 -36 427 -14 575 33 212 115 409 226 543 78 93 153 152 265 208 147 72 225
87 434 81 192 -5 253 -16 359 -68 72 -35 124 -94 176 -199 39 -77 81 -201 100
-291 10 -53 16 -65 34 -67 l22 -3 0 343 0 344 -47 11 c-27 6 -93 30 -148 53
-167 71 -303 101 -485 105 -85 2 -182 0 -215 -4z m1036 -1052 c-5 -30 -12
-117 -15 -194 -15 -342 -27 -379 -48 -159 -14 139 -1 250 39 350 14 36 27 63
29 61 2 -2 0 -28 -5 -58z m68 -65 c11 -44 21 -109 21 -145 0 -64 -35 -216 -65
-280 -14 -32 -15 -19 -10 176 6 238 14 350 25 338 4 -4 17 -44 29 -89z m324
-296 c-75 -79 -124 -151 -172 -252 -26 -56 -55 -117 -65 -136 l-16 -35 6 50
c8 65 56 195 93 254 34 53 79 98 135 135 57 38 66 32 19 -16z m23 -30 c-14
-24 -38 -80 -55 -125 -39 -106 -62 -152 -124 -240 -50 -73 -74 -93 -62 -50 19
65 98 247 133 305 44 73 108 152 123 152 6 0 -1 -19 -15 -42z m-1011 -348 c0
-131 -3 -236 -7 -232 -15 15 -48 159 -48 207 0 61 15 152 36 218 9 26 16 47
17 47 1 0 2 -108 2 -240z m64 130 c25 -88 27 -189 6 -280 -22 -95 -28 -101
-36 -45 -11 75 -11 421 0 410 5 -6 19 -44 30 -85z m-446 36 c11 11 92 -44 148
-99 56 -56 176 -223 167 -232 -3 -3 -41 36 -86 87 -44 51 -115 127 -158 168
l-78 75 65 -74 c132 -152 259 -305 259 -313 0 -4 -4 -8 -8 -8 -15 0 -197 183
-239 240 -48 66 -112 180 -91 163 8 -7 18 -10 21 -7z m677 -507 c-68 -225 -81
-258 -101 -264 -10 -4 -24 -3 -30 1 -24 15 19 159 79 264 33 57 74 112 79 106
2 -2 -10 -50 -27 -107z m-63 22 c-43 -81 -66 -89 -26 -9 19 38 56 88 66 88 2
0 -16 -36 -40 -79z m-465 -42 c66 -34 273 -150 283 -160 18 -17 -35 -9 -93 15
-54 21 -272 160 -272 172 0 8 38 -5 82 -27z m104 -4 c62 -30 134 -81 134 -96
0 -11 -206 95 -230 119 -13 13 -12 14 15 8 17 -4 53 -18 81 -31z m627 -823 c3
-68 2 -120 -3 -117 -30 19 -250 448 -250 488 0 7 28 27 63 44 34 18 87 53 117
77 l55 44 7 -206 c3 -114 8 -262 11 -330z"/>
<path d="M1430 2581 c-134 -53 -179 -78 -190 -107 -6 -14 -10 -142 -10 -286
l0 -260 -33 -33 c-51 -51 -180 -84 -389 -101 l-88 -6 0 -29 0 -29 675 0 675 0
0 39 0 39 -192 4 c-212 4 -250 13 -292 70 -29 41 -34 104 -35 436 -1 235 -4
302 -13 301 -7 0 -56 -17 -108 -38z"/>
<path d="M1023 1664 c-7 -19 14 -495 24 -532 10 -40 28 -17 26 34 -12 388 -19
508 -30 512 -7 2 -16 -4 -20 -14z"/>
<path d="M1196 1608 c-4 -29 -15 -143 -25 -253 -19 -213 -28 -243 -106 -375
-38 -63 0 -17 77 95 107 156 299 365 443 484 22 18 33 29 25 25 -51 -25 -120
-83 -234 -193 -128 -125 -146 -130 -56 -16 65 82 165 176 228 215 58 35 69 49
20 24 -114 -58 -235 -169 -315 -287 -58 -85 -59 -81 -39 118 20 184 20 215 2
215 -9 0 -16 -18 -20 -52z"/>
<path d="M1650 1340 c0 -5 10 -12 23 -15 12 -3 268 -4 567 -1 300 3 854 5
1233 5 451 1 687 4 687 11 0 7 -425 10 -1255 10 -814 0 -1255 -3 -1255 -10z"/>
<path d="M1690 1169 c47 -4 171 -7 275 -6 l190 0 -135 8 c-74 3 -198 6 -275 6
-132 0 -135 -1 -55 -8z"/>
<path d="M2813 1163 c31 -2 83 -2 115 0 31 2 5 3 -58 3 -63 0 -89 -1 -57 -3z"/>
<path d="M3018 1163 c7 -3 16 -2 19 1 4 3 -2 6 -13 5 -11 0 -14 -3 -6 -6z"/>
<path d="M4208 1163 c7 -3 16 -2 19 1 4 3 -2 6 -13 5 -11 0 -14 -3 -6 -6z"/>
</g>
</svg>
