<?xml version="1.0" encoding="utf-8" ?>
<svg xmlns="http://www.w3.org/2000/svg" xmlns:xlink="http://www.w3.org/1999/xlink" width="1024" height="1024">
	<path fill="#049A6C" d="M469.351 477.241L469.794 476.995C479.482 490.499 487.587 506.069 491.23 522.391L491.182 522.85C490.676 528.041 491.066 533.137 490.175 538.315L490.034 539.174C489.805 540.5 489.646 541.338 488.689 542.36C484.036 527.916 476.599 502.646 466.635 491.428L467.647 489.977C468.433 485.725 469.007 481.552 469.351 477.241Z"/>
	<path fill="#D0C57E" d="M505.601 816.402C523.686 816.554 588.573 817.832 600.434 831.072C601.463 832.219 602.098 833.248 602.02 834.843C598.799 836.484 586.26 840.803 584.679 842.214C571.474 844.351 558.44 847.123 545.112 848.467C506.771 852.331 436.472 852.951 400.838 840.137C396.043 838.412 391.903 836.182 387.637 833.408L387.478 831.754C387.823 830.978 388.14 830.368 388.726 829.74C400.271 817.376 468.759 816.57 487.5 816.535C487.346 823.332 485.686 841.08 488.953 846.378C491.46 848.359 495.523 848.879 498.623 848.501C500.883 848.225 502.936 847.197 504.232 845.288C507.829 839.989 506.322 822.984 505.601 816.402Z"/>
	<path fill="#06584A" d="M584.679 842.214C586.26 840.803 598.799 836.484 602.02 834.843C599.79 845.362 598.498 856.129 596.539 866.711C592.677 887.571 581.596 943.399 563.354 955.037C547.319 965.267 512.537 966.124 493.49 966.226C488.349 966.253 482.473 966.599 477.404 965.733C479.649 960.129 501.153 948.978 506.999 944.619C515.798 938.058 524.503 930.201 532.2 922.386C553.419 900.843 573.935 870.443 584.679 842.214Z"/>
	<path fill="#39C99B" d="M553.785 679.528L554.472 674.08C559.001 639.649 578.84 605.257 606.495 584.191C635.051 562.439 674.422 552.605 709.966 552.61C722.112 552.612 734.347 554.075 746.367 555.715C730.234 564.354 708.961 575.205 703.055 594.171C702.995 594.365 702.959 594.566 702.911 594.764C682.722 597.714 661.802 605.45 643.606 614.535C638.588 617.041 633.786 619.976 628.851 622.64C623.857 625.336 618.593 627.543 613.665 630.356C602.336 636.823 591.623 644.737 581.591 653.05C574.986 658.524 568.978 664.593 562.917 670.651C559.984 673.583 557.08 677.031 553.785 679.528Z"/>
	<path fill="#07775C" d="M244.609 328.763C253.495 327.884 262.413 326.898 271.346 326.655C320.313 325.319 376.562 334.968 415.444 366.858C446.522 392.347 465.865 436.916 469.75 476.513L469.794 476.995L469.351 477.241C463.714 475.022 452.692 458.291 447.947 452.937C440.867 444.947 432.11 437.545 423.765 430.897C419.165 427.232 414.461 423.503 409.654 420.112C404.392 416.399 391.784 410.488 388.811 404.919C379.405 398.285 368.064 392.931 357.545 388.253C357.219 388.227 356.891 388.216 356.566 388.175C351.938 387.582 337.262 382.559 334.343 378.936C330.131 367.27 321.034 356.423 310.916 349.334C293.824 337.36 272.843 336.887 252.815 338.435C247.517 338.845 242.279 338.966 237.024 339.858C240.016 336.348 242.274 332.728 244.609 328.763Z"/>
	<path fill="#049A6C" d="M301.796 336.659C333.262 347.642 370.145 362.569 385.428 394.522Q386.623 396.994 387.473 399.606Q388.322 402.217 388.811 404.919C379.405 398.285 368.064 392.931 357.545 388.253C352.246 382.869 345.418 380.187 338.736 376.886C328.481 356.773 320.694 348.984 301.796 336.659Z"/>
	<defs>
		<linearGradient id="gradient_0" gradientUnits="userSpaceOnUse" x1="735.23053" y1="621.39264" x2="484.83371" y2="601.37787">
			<stop offset="0" stop-color="#01825B"/>
			<stop offset="1" stop-color="#0BB992"/>
		</linearGradient>
	</defs>
	<path fill="url(#gradient_0)" d="M505.841 326.437C507.348 332.725 509.769 340.121 509.192 346.617C511.915 349.745 512.631 353.973 513.237 357.977L514.117 357.967C514.159 360.097 513.884 363.034 515.477 364.685C516.872 366.131 519.345 366.021 521.19 365.817Q522.04 365.719 522.885 365.578C524.233 365.302 525.591 364.925 526.968 364.905C531.711 354.321 537.251 343.24 544.013 333.811C541.485 348.863 538.545 362.389 542.238 377.658C536.559 388.145 530.631 398.58 525.377 409.286C523.076 413.974 519.533 423.785 517.077 427.48C516.757 436.35 512.562 445.457 514.389 454.383C514.923 454.86 515.211 455.084 515.882 455.378C513.388 462.112 512.007 469.095 510.972 476.187C508.615 492.335 508.135 508.934 507.236 525.229C506.246 543.165 504.477 562.19 506.211 580.111C507.951 585.356 502.909 599.985 507.342 606.366C502.5 627.349 504.881 650.387 504.823 671.833Q504.323 711.561 504.564 751.291C510.975 740.551 516.792 729.49 523.572 718.968C530.359 708.433 538.139 698.64 546.019 688.912C548.197 686.223 551.06 681.53 553.785 679.528C557.08 677.031 559.984 673.583 562.917 670.651C568.978 664.593 574.986 658.524 581.591 653.05C591.623 644.737 602.336 636.823 613.665 630.356C618.593 627.543 623.857 625.336 628.851 622.64C633.786 619.976 638.588 617.041 643.606 614.535C661.802 605.45 682.722 597.714 702.911 594.764C715.32 592.214 727.608 589.866 740.265 588.974C738.81 590.086 738.351 590.357 737.586 592.079C737.786 593.203 737.833 593.171 738.718 593.91C739.717 593.966 740.703 594.028 741.704 594.009C734.177 595.389 726.602 596.517 719.144 598.246C666.964 610.346 615.028 633.371 576.672 671.493C571.453 676.681 563.57 683.077 559.562 689.141C559.402 689.384 559.249 689.631 559.093 689.876C537.838 712.936 524.483 732.894 512.231 761.861C510.077 766.953 506.85 772.203 505.789 777.65C503.877 787.47 505.398 805.861 505.601 816.402C506.322 822.984 507.829 839.989 504.232 845.288C502.936 847.197 500.883 848.225 498.623 848.501C495.523 848.879 491.46 848.359 488.953 846.378C485.686 841.08 487.346 823.332 487.5 816.535Q487.249 787.217 487.369 757.899C487.406 747.42 488.221 736.373 487.251 725.963C486.923 722.446 486.135 719.435 484.738 716.197C485.223 715.836 485.665 715.548 486.049 715.057C487.932 712.648 486.888 699.548 486.818 695.953L487.436 695.65C488.172 688.957 488.028 682.005 488.172 675.271C488.498 659.957 488.402 644.637 488.639 629.321L489.591 580.922C489.856 568.33 491.023 554.771 488.689 542.36C489.646 541.338 489.805 540.5 490.034 539.174L490.175 538.315C491.066 533.137 490.676 528.041 491.182 522.85L491.23 522.391C492.574 518.085 492.769 512.914 493.219 508.417C494.801 492.618 494.96 476.785 496.142 460.97C496.968 449.906 501.082 429.69 499.066 419.741C504.741 414.183 500.731 401.752 503.35 394.619C501.636 384.466 498.526 373.892 494.069 364.587C498.55 357.802 501.679 349.021 503.077 341.036C503.86 336.561 503.59 330.309 505.841 326.437ZM526.968 364.905Q524.809 372.546 523.107 380.301Q521.404 388.056 520.165 395.899Q518.925 403.741 518.152 411.644Q517.38 419.546 517.077 427.48C519.533 423.785 523.076 413.974 525.377 409.286C530.631 398.58 536.559 388.145 542.238 377.658C538.545 362.389 541.485 348.863 544.013 333.811C537.251 343.24 531.711 354.321 526.968 364.905ZM505.841 326.437C503.59 330.309 503.86 336.561 503.077 341.036C501.679 349.021 498.55 357.802 494.069 364.587C498.526 373.892 501.636 384.466 503.35 394.619C507.42 383.882 506.046 370.468 507.727 359.099C509.519 357.996 511.194 358.058 513.237 357.977C512.631 353.973 511.915 349.745 509.192 346.617C509.769 340.121 507.348 332.725 505.841 326.437Z"/>
	<path fill="#39C99B" d="M509.192 346.617C511.915 349.745 512.631 353.973 513.237 357.977C511.194 358.058 509.519 357.996 507.727 359.099C508.012 354.928 508.659 350.763 509.192 346.617Z"/>
	<path fill="#07775C" d="M387.637 833.408C391.903 836.182 396.043 838.412 400.838 840.137C436.472 852.951 506.771 852.331 545.112 848.467C558.44 847.123 571.474 844.351 584.679 842.214C573.935 870.443 553.419 900.843 532.2 922.386C524.503 930.201 515.798 938.058 506.999 944.619C501.153 948.978 479.649 960.129 477.404 965.733C463.657 965.021 447.505 964.305 435.284 957.504C431.613 955.461 428.741 953.07 426.205 949.702C408.378 926.028 396.212 863.606 387.637 833.408Z"/>
	<path fill="#7DD5B5" d="M746.367 555.715C754.953 556.9 763.502 558.082 771.931 560.141C793.303 565.364 838.971 581.532 854.617 596.567L853.9 596.936C846.233 600.828 837.776 603.321 829.854 606.682C816.145 612.499 808.151 618.776 796.566 627.656C764.104 664.882 728.45 706.794 675.523 710.398C644.308 712.523 613.39 706.118 583.363 698.288C575.405 696.213 565.884 694.644 559.093 689.876C559.249 689.631 559.402 689.384 559.562 689.141C563.57 683.077 571.453 676.681 576.672 671.493C615.028 633.371 666.964 610.346 719.144 598.246C726.602 596.517 734.177 595.389 741.704 594.009C740.703 594.028 739.717 593.966 738.718 593.91C737.833 593.171 737.786 593.203 737.586 592.079C738.351 590.357 738.81 590.086 740.265 588.974C727.608 589.866 715.32 592.214 702.911 594.764C702.959 594.566 702.995 594.365 703.055 594.171C708.961 575.205 730.234 564.354 746.367 555.715Z"/>
	<path fill="#07775C" d="M792.292 587.154C800.25 586.959 808.154 586.716 816.022 588.203C809.757 589.617 800.833 589.587 794.385 589.242C790.799 588.122 787.236 588.372 783.536 588.511L756.848 592.217C752.143 592.876 746.434 594.22 741.704 594.009C740.703 594.028 739.717 593.966 738.718 593.91C737.833 593.171 737.786 593.203 737.586 592.079C738.351 590.357 738.81 590.086 740.265 588.974C757.515 586.699 774.943 586.984 792.292 587.154Z"/>
	<path fill="#39C99B" d="M783.536 588.511C787.236 588.372 790.799 588.122 794.385 589.242C785.133 592.954 764 593.611 752.795 595.74C737.22 598.7 722.025 603.465 706.504 606.427C716.585 610.122 724.948 614.353 732.79 621.832C736.26 625.142 739.517 628.767 743.265 631.765C725.175 621.113 704.512 612.668 683.128 618.18C670.058 621.548 661.897 629.561 650.63 635.924C666.504 640.535 689.147 650.417 701.162 662.203C698.063 661.266 695.851 659.474 693.077 657.959C690.339 656.464 687.503 655.425 684.536 654.477C653.381 644.524 632.865 650.506 602.849 658.532C625.291 673.491 645.145 680.993 672.356 681.054C680.492 681.072 688.398 680.595 696.402 679.009C716.604 675.006 735.555 665.994 753.019 655.312C760.832 650.533 768.614 645.358 776.062 640.025C781.106 636.413 785.998 632.109 791.455 629.147C793.212 628.194 794.566 627.65 796.566 627.656C764.104 664.882 728.45 706.794 675.523 710.398C644.308 712.523 613.39 706.118 583.363 698.288C575.405 696.213 565.884 694.644 559.093 689.876C559.249 689.631 559.402 689.384 559.562 689.141C563.57 683.077 571.453 676.681 576.672 671.493C615.028 633.371 666.964 610.346 719.144 598.246C726.602 596.517 734.177 595.389 741.704 594.009C746.434 594.22 752.143 592.876 756.848 592.217L783.536 588.511Z"/>
	<path fill="#7DD5B5" d="M313.119 221.986C310.609 217.93 308.312 213.773 305.695 209.777C302.193 204.429 298.027 199.006 295.261 193.248C294.457 191.575 293.753 190.434 294.363 188.626C295.338 187.617 296.156 187.041 297.487 186.557C303.639 184.319 311.439 185.186 317.866 185.457C355.925 187.068 393.507 199.414 427.503 216.186Q440.922 223.283 454.233 230.58C460.472 235.628 472.529 246.442 477.537 252.443C490.966 268.535 503.255 297.393 505.464 318.281C505.749 320.977 505.786 323.727 505.841 326.437C503.59 330.309 503.86 336.561 503.077 341.036C501.679 349.021 498.55 357.802 494.069 364.587C498.526 373.892 501.636 384.466 503.35 394.619C500.731 401.752 504.741 414.183 499.066 419.741Q494.671 401.39 489.573 383.222C488.27 378.58 487.167 373.764 485.49 369.244C467.294 372.361 448.316 368.878 431.053 362.88Q429.23 362.236 427.424 361.548Q425.617 360.86 423.827 360.129Q422.037 359.399 420.265 358.626Q418.493 357.853 416.74 357.038Q414.987 356.223 413.253 355.366Q411.52 354.51 409.808 353.612Q408.096 352.714 406.405 351.776Q404.715 350.838 403.047 349.86Q401.38 348.882 399.736 347.864Q398.092 346.846 396.473 345.79Q394.854 344.733 393.261 343.639Q391.667 342.544 390.1 341.411Q388.534 340.279 386.994 339.109Q385.455 337.94 383.943 336.734Q382.432 335.528 380.95 334.287Q379.468 333.045 378.016 331.769Q376.564 330.492 375.143 329.182Q373.722 327.871 372.332 326.527Q370.943 325.183 369.586 323.806Q368.229 322.429 366.905 321.02Q365.581 319.611 364.291 318.171Q363.001 316.732 361.745 315.261Q360.49 313.791 359.27 312.291Q358.05 310.791 356.866 309.263Q355.682 307.734 354.535 306.178Q353.388 304.622 352.279 303.039Q351.169 301.456 350.097 299.847Q349.026 298.238 347.993 296.603Q346.96 294.969 345.966 293.311Q344.972 291.653 344.018 289.971Q343.064 288.29 342.15 286.586Q341.237 284.882 340.364 283.157C330.241 263.304 322.857 242.09 313.119 221.986Z"/>
	<path fill="#39C99B" d="M367.637 256.25C374.054 256.296 380.866 257.867 386.991 259.682C391.433 260.998 411.015 269.327 413.038 269.259C413.52 269.243 413.975 269.03 414.443 268.916C422.685 274.989 433.945 286.894 438.434 295.95C431.767 292.972 426.896 286.391 420.896 282.241C403.408 270.149 387.488 263.233 367.637 256.25Z"/>
	<path fill="#39C99B" d="M313.119 221.986C315.777 222.392 316.448 223.463 317.978 225.549C330.068 242.035 339.96 260.734 352.277 277.501C373.432 306.296 401.609 324.308 435.283 335.15C442.432 337.451 449.824 339.897 457.245 341.111C461.585 341.822 465.846 342.042 470.236 341.995C450.922 323.897 429.765 310.434 404.88 301.254C398.138 298.767 390.835 297.52 384.23 294.83C397.26 295.333 410.507 297.352 423.199 300.324C430.779 302.1 438.524 305.447 446.347 305.748C456.042 314.495 483.942 357.338 485.49 369.244C467.294 372.361 448.316 368.878 431.053 362.88Q429.23 362.236 427.424 361.548Q425.617 360.86 423.827 360.129Q422.037 359.399 420.265 358.626Q418.493 357.853 416.74 357.038Q414.987 356.223 413.253 355.366Q411.52 354.51 409.808 353.612Q408.096 352.714 406.405 351.776Q404.715 350.838 403.047 349.86Q401.38 348.882 399.736 347.864Q398.092 346.846 396.473 345.79Q394.854 344.733 393.261 343.639Q391.667 342.544 390.1 341.411Q388.534 340.279 386.994 339.109Q385.455 337.94 383.943 336.734Q382.432 335.528 380.95 334.287Q379.468 333.045 378.016 331.769Q376.564 330.492 375.143 329.182Q373.722 327.871 372.332 326.527Q370.943 325.183 369.586 323.806Q368.229 322.429 366.905 321.02Q365.581 319.611 364.291 318.171Q363.001 316.732 361.745 315.261Q360.49 313.791 359.27 312.291Q358.05 310.791 356.866 309.263Q355.682 307.734 354.535 306.178Q353.388 304.622 352.279 303.039Q351.169 301.456 350.097 299.847Q349.026 298.238 347.993 296.603Q346.96 294.969 345.966 293.311Q344.972 291.653 344.018 289.971Q343.064 288.29 342.15 286.586Q341.237 284.882 340.364 283.157C330.241 263.304 322.857 242.09 313.119 221.986Z"/>
	<path fill="#39C99B" d="M385.936 202.593C402.417 212.061 415.628 224.851 420.677 243.635C421.639 247.213 422.178 250.881 422.614 254.555C436.905 262.258 452.414 282.878 461.649 296.517C458.774 278.652 447.533 251.34 439.077 235.448C435.516 228.755 428.832 223.974 427.503 216.186Q440.922 223.283 454.233 230.58C460.472 235.628 472.529 246.442 477.537 252.443C490.966 268.535 503.255 297.393 505.464 318.281C505.749 320.977 505.786 323.727 505.841 326.437C503.59 330.309 503.86 336.561 503.077 341.036C501.679 349.021 498.55 357.802 494.069 364.587C498.526 373.892 501.636 384.466 503.35 394.619C500.731 401.752 504.741 414.183 499.066 419.741Q494.671 401.39 489.573 383.222C488.27 378.58 487.167 373.764 485.49 369.244C483.942 357.338 456.042 314.495 446.347 305.748C443.635 302.55 440.825 299.399 438.434 295.95C433.945 286.894 422.685 274.989 414.443 268.916C405.161 261.296 396.987 252.289 387.84 244.491C373.077 231.906 357.216 220.948 341.144 210.134C337.143 207.909 332.809 205.832 329.178 203.036C360.231 211.966 391.644 225.771 415.421 248.192C406.649 224.408 403.785 220.605 385.936 202.593Z"/>
	<path fill="#049A6C" d="M341.144 210.134C343.431 209.313 346.866 211.165 348.967 212.154C367.763 221.005 388.789 237.391 405.393 249.933C417.094 258.772 429.286 267.665 440.107 277.561C445.748 282.72 450.491 288.973 455.639 294.622C459.238 298.572 463.479 302.132 466.692 306.402C475.333 317.889 484.29 337.194 489.151 350.951C490.73 355.419 491.714 360.466 494.069 364.587C498.526 373.892 501.636 384.466 503.35 394.619C500.731 401.752 504.741 414.183 499.066 419.741Q494.671 401.39 489.573 383.222C488.27 378.58 487.167 373.764 485.49 369.244C483.942 357.338 456.042 314.495 446.347 305.748C443.635 302.55 440.825 299.399 438.434 295.95C433.945 286.894 422.685 274.989 414.443 268.916C405.161 261.296 396.987 252.289 387.84 244.491C373.077 231.906 357.216 220.948 341.144 210.134Z"/>
	<path fill="#049A6C" d="M162.543 357.445C188.389 338.117 213.556 332.848 244.609 328.763C242.274 332.728 240.016 336.348 237.024 339.858C242.279 338.966 247.517 338.845 252.815 338.435C272.843 336.887 293.824 337.36 310.916 349.334C321.034 356.423 330.131 367.27 334.343 378.936C337.262 382.559 351.938 387.582 356.566 388.175C356.891 388.216 357.219 388.227 357.545 388.253C368.064 392.931 379.405 398.285 388.811 404.919C391.784 410.488 404.392 416.399 409.654 420.112C414.461 423.503 419.165 427.232 423.765 430.897C432.11 437.545 440.867 444.947 447.947 452.937C452.692 458.291 463.714 475.022 469.351 477.241C469.007 481.552 468.433 485.725 467.647 489.977L466.635 491.428C459.085 492.701 449.36 492.954 441.298 494.044C415.041 497.593 388.204 503.068 361.604 500.172C315.802 495.186 280.873 465.174 253.004 430.712C245.446 424.067 240.305 414.353 233.724 406.743C213.52 383.38 190.508 369.565 162.543 357.445Z"/>
	<path fill="#06584A" d="M187.955 359.588C195.371 357.856 204.331 358.224 211.946 358.231C246.254 358.26 278.488 361.877 311.614 370.946C319.18 373.017 327.575 374.844 334.343 378.936C337.262 382.559 351.938 387.582 356.566 388.175C356.891 388.216 357.219 388.227 357.545 388.253C368.064 392.931 379.405 398.285 388.811 404.919C391.784 410.488 404.392 416.399 409.654 420.112C414.461 423.503 419.165 427.232 423.765 430.897C432.11 437.545 440.867 444.947 447.947 452.937C452.692 458.291 463.714 475.022 469.351 477.241C469.007 481.552 468.433 485.725 467.647 489.977C462.607 486.715 458.277 478.968 454.278 474.376C447.495 466.588 440.324 458.792 432.878 451.641C400.014 420.081 361.309 396.933 319.022 380.382C309.422 376.624 299.387 371.795 288.898 372.005C254.208 362.089 223.505 361.869 187.955 359.588Z"/>
	<path fill="#07775C" d="M288.898 372.005C299.387 371.795 309.422 376.624 319.022 380.382C361.309 396.933 400.014 420.081 432.878 451.641C440.324 458.792 447.495 466.588 454.278 474.376C458.277 478.968 462.607 486.715 467.647 489.977L466.635 491.428C459.085 492.701 449.36 492.954 441.298 494.044C415.041 497.593 388.204 503.068 361.604 500.172C315.802 495.186 280.873 465.174 253.004 430.712C253.309 430.599 253.607 430.464 253.919 430.374C255.76 429.849 257.425 430.95 258.873 431.947C263.199 434.926 266.887 439.171 270.863 442.64Q276.777 447.792 283.19 452.309Q289.603 456.825 296.447 460.657C335.691 482.3 381.597 471.647 422.05 459.898C417.027 454.855 411.008 450.327 404.748 446.938C377.913 432.41 345.584 437.952 317.71 446.121C329.467 439.823 341.155 434.798 354.065 431.309C363.455 428.772 373.043 427.01 382.448 424.515C370.607 416.471 358.425 407.777 345.311 401.938C327.237 393.891 309.681 395.498 291.044 400.654C286.221 401.989 281.322 403.259 276.653 405.073C290.11 396.151 306.087 392.814 321.516 388.946C316.996 386.373 312.457 383.725 307.776 381.452C301.42 378.365 294.958 375.68 288.898 372.005Z"/>
	<path fill="#39C99B" d="M698.145 215.338C719.695 209.972 777.801 213.707 796.125 224.313C797.9 225.341 800.137 226.914 800.705 229.012C801.023 230.183 800.962 230.901 800.281 231.9C795.787 238.491 786.601 244.272 780.82 250.072C773.439 257.477 767.821 266.539 760.11 273.631C750.005 287.228 741.426 301.826 730.92 315.159C699.518 355.01 657.971 376.332 608.125 383.7C590.447 386.313 569.225 388.678 551.78 384.192C545.864 394.632 539.609 404.903 534.026 415.527Q523.992 435.015 515.882 455.378C515.211 455.084 514.923 454.86 514.389 454.383C512.562 445.457 516.757 436.35 517.077 427.48C519.533 423.785 523.076 413.974 525.377 409.286C530.631 398.58 536.559 388.145 542.238 377.658C538.545 362.389 541.485 348.863 544.013 333.811C545.763 330.95 546.917 327.035 548.246 323.917Q552.391 313.931 557.319 304.307C571.767 276.742 590.982 256.53 617.931 240.791C624.903 236.72 632.305 233.279 639.402 229.403C646.024 227.599 652.371 224.792 658.953 222.824C671.625 219.036 685.007 216.744 698.145 215.338Z"/>
	<path fill="#049A6C" d="M655.609 266.273C663.958 262.754 672.047 258.753 680.505 255.438C709.16 244.204 741.787 235.452 772.71 235.031C766.931 236.839 760.852 237.945 754.968 239.392Q742.936 242.397 731.069 245.999C719.161 247.722 708.005 254.004 697.208 259.064Q692.233 261.352 687.332 263.796Q682.432 266.24 677.61 268.836Q672.789 271.433 668.052 274.18Q663.314 276.927 658.666 279.821Q654.017 282.716 649.462 285.755Q644.906 288.795 640.449 291.976Q635.991 295.157 631.636 298.477Q627.281 301.796 623.032 305.251Q618.784 308.706 614.646 312.293Q610.508 315.88 606.485 319.595Q602.462 323.311 598.557 327.15Q594.653 330.99 590.872 334.951Q587.09 338.912 583.435 342.99Q579.78 347.068 576.255 351.258Q572.73 355.449 569.338 359.748Q565.947 364.048 562.692 368.452C558.866 373.574 555.559 379.048 551.78 384.192C545.864 394.632 539.609 404.903 534.026 415.527Q523.992 435.015 515.882 455.378C515.211 455.084 514.923 454.86 514.389 454.383C512.562 445.457 516.757 436.35 517.077 427.48C519.533 423.785 523.076 413.974 525.377 409.286C530.631 398.58 536.559 388.145 542.238 377.658C544.119 375.035 545.5 371.819 547.037 368.958C550.238 362.997 553.444 357.03 557.177 351.381C571.662 329.463 590.953 311.641 610.527 294.372C623.861 285.741 636.943 276.181 651.232 269.178L655.609 266.273Z"/>
	<path fill="#39C99B" d="M639.402 229.403C646.024 227.599 652.371 224.792 658.953 222.824C671.625 219.036 685.007 216.744 698.145 215.338C695.137 220.099 688.401 223.537 684.039 227.207C674.451 235.276 657.951 253.973 655.609 266.273L651.232 269.178C636.943 276.181 623.861 285.741 610.527 294.372C590.953 311.641 571.662 329.463 557.177 351.381C553.444 357.03 550.238 362.997 547.037 368.958C545.5 371.819 544.119 375.035 542.238 377.658C538.545 362.389 541.485 348.863 544.013 333.811C545.763 330.95 546.917 327.035 548.246 323.917Q552.391 313.931 557.319 304.307C571.767 276.742 590.982 256.53 617.931 240.791C624.903 236.72 632.305 233.279 639.402 229.403Z"/>
	<path fill="#7DD5B5" d="M610.527 294.372C610.443 294.159 610.33 293.955 610.276 293.732C608.981 288.482 617.557 272.045 620.189 267.137C639.551 231.039 654.638 229.548 690.856 218.65C686.684 221.545 682.204 223.949 678.024 226.831C664.404 236.224 654.177 253.02 651.232 269.178C636.943 276.181 623.861 285.741 610.527 294.372Z"/>
	<path fill="#7DD5B5" d="M698.145 215.338C719.695 209.972 777.801 213.707 796.125 224.313C797.9 225.341 800.137 226.914 800.705 229.012C801.023 230.183 800.962 230.901 800.281 231.9C795.787 238.491 786.601 244.272 780.82 250.072C773.439 257.477 767.821 266.539 760.11 273.631C748.876 273.287 707.828 313.016 697.544 321.188C690.982 326.402 684.234 331.019 676.718 334.784C646.832 349.752 611.269 347.761 578.815 352.192Q580.19 350.26 581.721 348.449Q583.253 346.639 584.932 344.964Q586.61 343.289 588.424 341.761Q590.237 340.233 592.172 338.862C621.362 318.541 654.03 322.617 686.866 328.348C666.586 319.035 652.285 314.557 630.048 311.804C636.981 306.494 643.84 301.075 650.837 295.849C666.794 283.93 682.331 279.637 702.176 282.365C708.942 283.295 715.605 284.887 722.371 285.868C709.746 280.294 696.462 277.309 682.979 274.675C690.627 268.818 698.648 262.812 707.136 258.223C714.84 254.058 724.228 251.559 731.069 245.999Q742.936 242.397 754.968 239.392C760.852 237.945 766.931 236.839 772.71 235.031C741.787 235.452 709.16 244.204 680.505 255.438C672.047 258.753 663.958 262.754 655.609 266.273C657.951 253.973 674.451 235.276 684.039 227.207C688.401 223.537 695.137 220.099 698.145 215.338Z"/>
	<defs>
		<linearGradient id="gradient_1" gradientUnits="userSpaceOnUse" x1="401.32159" y1="525.15448" x2="237.91875" y2="636.28076">
			<stop offset="0" stop-color="#51CEA7"/>
			<stop offset="1" stop-color="#99DDBF"/>
		</linearGradient>
	</defs>
	<path fill="url(#gradient_1)" d="M164.412 532.143Q166.838 530.752 169.297 529.42Q171.756 528.088 174.246 526.816Q176.737 525.544 179.258 524.332Q181.778 523.121 184.327 521.971Q186.877 520.821 189.453 519.733Q192.029 518.645 194.631 517.62Q197.233 516.594 199.859 515.632Q202.485 514.67 205.133 513.772Q207.781 512.874 210.451 512.04Q213.12 511.206 215.809 510.438Q218.498 509.669 221.205 508.965Q223.911 508.262 226.634 507.624Q229.357 506.986 232.094 506.414Q234.832 505.843 237.583 505.337Q240.333 504.832 243.095 504.394Q245.857 503.955 248.629 503.583Q251.401 503.212 254.181 502.908Q256.961 502.603 259.747 502.366Q262.534 502.13 265.325 501.96Q268.117 501.791 270.911 501.689Q273.706 501.587 276.502 501.553Q279.299 501.519 282.095 501.553Q284.891 501.586 287.686 501.688Q290.481 501.789 293.272 501.958Q296.064 502.127 298.85 502.364Q301.637 502.6 304.417 502.904Q307.197 503.208 309.969 503.579Q312.741 503.95 315.503 504.388Q318.265 504.827 321.016 505.331Q323.766 505.836 326.504 506.408Q329.241 506.979 331.964 507.616Q334.687 508.254 337.394 508.957C377.99 519.496 418.391 543.66 439.959 580.551C451.511 600.311 456.585 622.043 455.321 644.818C457.427 649.196 460.603 653.355 463.282 657.434C470.864 668.979 481.456 683.403 486.818 695.953C486.888 699.548 487.932 712.648 486.049 715.057C485.665 715.548 485.223 715.836 484.738 716.197C478.05 703.266 471.278 690.433 463.692 677.996C460.08 672.074 455.312 666.678 452.055 660.577C432.382 662.085 413.067 666.591 393.34 667.583C379.839 668.261 366.151 668.262 352.761 666.218C310.696 659.797 273.914 635.072 246.455 603.315C238.376 593.972 231.827 583.314 224.001 573.75C216.616 564.724 207.766 557.008 199.134 549.213C188.005 541.749 176.858 536.901 164.412 532.143Z"/>
	<path fill="#39C99B" d="M320.64 543.682C320.558 543.371 320.484 543.058 320.395 542.748C316.707 529.845 300.495 518.929 290.176 511.747L290.739 511.904L290.812 511.43L291.198 512.051C305.817 517.734 330.184 535.883 337.34 549.861C331.619 548.143 326.053 546.222 320.64 543.682Z"/>
	<path fill="#39C99B" d="M389.874 579.013C390.605 568.603 381.363 556.479 375.007 549.113C366.479 539.23 356.446 531.461 345.488 524.487C341.101 521.695 336.375 519.139 332.229 516.014C365.306 526.712 392.966 555.484 408.588 585.995C410.742 590.201 413.249 594.802 414.386 599.393C405.478 594.563 396.919 586.307 389.874 579.013Z"/>
	<path fill="#049A6C" d="M253.348 536.41C253.207 536.417 253.067 536.426 252.926 536.431C244.788 536.71 236.224 534.247 228.104 533.473C225.022 533.18 211.279 533.288 209.463 532.059C212.755 530.457 220.077 531.103 223.968 531.006C258.926 530.132 287.114 534.583 320.64 543.682C326.053 546.222 331.619 548.143 337.34 549.861C352.098 554.169 376.899 569.827 389.874 579.013C396.919 586.307 405.478 594.563 414.386 599.393C421.029 605.992 428.057 612.464 434.265 619.467C438.796 624.578 442.808 630.263 446.979 635.673C448.451 637.583 453.192 644.497 455.321 644.818C457.427 649.196 460.603 653.355 463.282 657.434C470.864 668.979 481.456 683.403 486.818 695.953C486.888 699.548 487.932 712.648 486.049 715.057C485.665 715.548 485.223 715.836 484.738 716.197C478.05 703.266 471.278 690.433 463.692 677.996C460.08 672.074 455.312 666.678 452.055 660.577C443.529 641.445 395.973 595.705 378.238 583.004C349.227 562.225 313.898 549.275 279.586 540.366C271.746 538.331 261.365 535.074 253.348 536.41Z"/>
	<path fill="#39C99B" d="M253.348 536.41C261.365 535.074 271.746 538.331 279.586 540.366C313.898 549.275 349.227 562.225 378.238 583.004C395.973 595.705 443.529 641.445 452.055 660.577C432.382 662.085 413.067 666.591 393.34 667.583C379.839 668.261 366.151 668.262 352.761 666.218C310.696 659.797 273.914 635.072 246.455 603.315C238.376 593.972 231.827 583.314 224.001 573.75C216.616 564.724 207.766 557.008 199.134 549.213C213.166 548.5 251.297 585.345 264.063 594.896Q271.598 600.611 279.611 605.635Q287.624 610.658 296.051 614.951C332.105 633.595 375.89 640.172 414.927 627.651C409.774 624.467 404.63 621.262 399.436 618.147C366.731 598.533 348.412 606.376 314.284 614.895C330.602 605.311 347.815 598.778 365.291 591.689C325.389 567.27 303.591 566.78 258.918 576.181C275.71 568.308 292.883 564.285 310.657 559.331C300.672 552.51 285.258 546.784 273.641 543.123C267.548 541.203 258.513 540.096 253.348 536.41Z"/>
	<path fill="#049A6C" d="M454.233 230.58C455.63 225.841 456.498 220.968 457.961 216.219C461.265 205.493 466.259 195.207 471.591 185.357C510.378 113.7 574.465 78.304 650.368 55.6386Q647.223 62.6274 644.191 69.6661C640.683 79.8833 637.48 90.1712 636.006 100.911C632.536 126.201 638.752 155.43 640.104 181.232C640.952 197.412 639.533 213.262 639.402 229.403C632.305 233.279 624.903 236.72 617.931 240.791C590.982 256.53 571.767 276.742 557.319 304.307Q552.391 313.931 548.246 323.917C546.917 327.035 545.763 330.95 544.013 333.811C537.251 343.24 531.711 354.321 526.968 364.905C525.591 364.925 524.233 365.302 522.885 365.578Q522.04 365.719 521.19 365.817C519.345 366.021 516.872 366.131 515.477 364.685C513.884 363.034 514.159 360.097 514.117 357.967L513.237 357.977C512.631 353.973 511.915 349.745 509.192 346.617C509.769 340.121 507.348 332.725 505.841 326.437C505.786 323.727 505.749 320.977 505.464 318.281C503.255 297.393 490.966 268.535 477.537 252.443C472.529 246.442 460.472 235.628 454.233 230.58Z"/>
	<path fill="#06584A" d="M579.364 129.849C592.408 110.43 607.008 92.2169 624.769 76.9059C627.37 74.664 630.816 71.2364 634.041 69.9535C634.348 69.8311 634.681 69.7842 635.001 69.6996L635.007 69.6852C614.981 85.3972 601.332 108.748 588.115 130.149C591.127 127.907 594.747 125.654 598.28 124.39C598.631 125.136 595.04 126.951 594.117 127.541C590.504 129.847 587.589 132.851 584.897 136.167C576.883 146.038 567.555 166.884 564.058 179.25C570.963 176.396 577.178 172.048 584.379 169.855Q588.209 168.702 591.997 167.419L592.53 167.722C590.764 168.867 587.981 169.502 586.009 170.417Q578.362 173.993 571.324 178.656C566.266 181.989 562.169 185.079 558.888 190.28C551.218 202.439 547.97 220.803 544.333 234.728C541.457 245.737 538.411 256.62 536.113 267.77C539.999 262.396 543.518 257.077 548.098 252.219C561.588 237.911 582.452 226.229 601.364 221.095Q607.659 219.34 613.901 217.406L576.404 240.479C563.975 248.144 546.63 256.671 537.621 268.136C534.773 271.76 533.745 276.545 532.732 280.948C528.529 299.218 525.844 318.571 524.379 337.256C523.642 346.663 523.541 356.15 522.885 365.578Q522.04 365.719 521.19 365.817C519.345 366.021 516.872 366.131 515.477 364.685C513.884 363.034 514.159 360.097 514.117 357.967C514.773 357.236 514.655 357.57 514.825 356.888C516.402 350.54 516.239 342.863 516.832 336.321C517.77 325.976 519.121 315.649 520.234 305.319C521.653 292.145 525.777 278.465 526.41 265.599C527.546 242.491 502.934 204.725 491.257 184.985C512.223 208.209 520.269 220.915 530.539 250.477C533.078 238.314 536.837 225.755 540.893 214.008C543.152 207.465 546.048 200.967 547.744 194.265C552.414 175.814 538.623 153.509 529.522 138.046C541.156 150.305 547.138 164.255 553.921 179.387C559.969 163.332 567.518 149.004 576.099 134.194C573.691 121.865 571.511 109.513 568.707 97.2634C574.392 107.616 577.15 118.346 579.364 129.849Z"/>
	<defs>
		<linearGradient id="gradient_2" gradientUnits="userSpaceOnUse" x1="638.12775" y1="227.84775" x2="546.98639" y2="209.9944">
			<stop offset="0" stop-color="#086E58"/>
			<stop offset="1" stop-color="#088963"/>
		</linearGradient>
	</defs>
	<path fill="url(#gradient_2)" d="M614.443 117.723C619.213 102.155 622.478 82.966 636.405 72.5138C638.923 70.624 640.991 69.27 644.191 69.6661C640.683 79.8833 637.48 90.1712 636.006 100.911C632.536 126.201 638.752 155.43 640.104 181.232C640.952 197.412 639.533 213.262 639.402 229.403C632.305 233.279 624.903 236.72 617.931 240.791C590.982 256.53 571.767 276.742 557.319 304.307Q552.391 313.931 548.246 323.917C546.917 327.035 545.763 330.95 544.013 333.811C537.251 343.24 531.711 354.321 526.968 364.905C525.591 364.925 524.233 365.302 522.885 365.578C523.541 356.15 523.642 346.663 524.379 337.256C525.844 318.571 528.529 299.218 532.732 280.948C533.745 276.545 534.773 271.76 537.621 268.136C546.63 256.671 563.975 248.144 576.404 240.479L613.901 217.406Q607.659 219.34 601.364 221.095C603.166 210.621 606.718 200.307 608.649 189.772C611.927 171.885 612.457 154.394 613.07 136.299C613.271 130.343 613.989 124.44 613.973 118.475C612.548 118.985 609.612 120.358 608.2 119.907C610.149 118.668 612.229 118.266 614.443 117.723Z"/>
	<path fill="#07775C" d="M506.211 580.111C512.958 567.751 518.286 555.075 526.186 543.315C532.945 533.257 545.003 522.847 549.605 512.089C552.36 505.645 551.611 498.132 552.493 491.297C553.245 485.467 554.911 479.595 556.637 473.979C572.257 423.147 613.357 392.501 662.615 378.014C684.846 371.475 703.002 371.44 725.68 372.001C735.237 372.237 744.885 372.13 754.423 372.762C777.88 374.316 799.017 380.815 820.754 389.486C829.87 393.122 839.281 396.579 847.897 401.301C850.582 402.773 854.632 404.739 855.84 407.682C855.206 409.722 852.832 410.749 851.009 411.739C847.141 413.841 842.837 415.345 838.835 417.202C833.424 419.715 828.136 422.857 823.123 426.098C792.231 446.078 777.891 474.15 752.598 498.676C744.541 506.489 735.657 513.706 725.933 519.334C696.726 536.236 659.012 542.46 625.581 539.289C612.121 538.012 598.777 534.863 585.642 531.786C576.74 529.7 567.789 527.855 559.062 525.093Q556.316 524.226 553.589 523.302C534.205 541.309 514.961 581.065 507.342 606.366C502.909 599.985 507.951 585.356 506.211 580.111Z"/>
	<path fill="#049A6C" d="M689.952 421.764C694.537 411.784 705.945 400.312 715.054 394.317C724.387 388.174 734.655 387.198 745.431 389.453C753.149 391.068 760.333 394.159 767.782 396.611C771.884 397.962 776.251 398.665 780.246 400.333C781.465 400.842 782.364 401.286 783.102 402.425C751.134 404.604 720.279 411.538 689.952 421.764Z"/>
	<path fill="#06584A" d="M647.969 412.735C648.097 412.679 648.227 412.625 648.354 412.567C653.532 410.203 658.545 405.852 663.331 402.646C672.613 396.426 698.077 380.531 708.902 383.978C710.35 384.44 711.159 385.126 712.053 386.357C711.556 388.983 709.355 390.578 707.203 392.007C695.513 399.771 676.53 414.75 672.023 428.317C678.026 427.258 684.319 424.084 689.952 421.764C720.279 411.538 751.134 404.604 783.102 402.425C793.498 402.571 803.775 401.685 814.14 401.095C818.229 400.862 822.354 401.201 826.406 400.633C827.065 400.541 826.784 400.511 827.326 400.682C817.752 403.778 806.29 403.157 796.248 404.216C784.151 405.492 771.977 407.487 760.053 409.884C702.566 421.437 644.739 447.568 598.291 483.358C589.096 490.444 579.935 497.878 571.44 505.795C566.713 510.2 562.354 514.97 557.696 519.436L557.962 520.16L557.305 519.729L554.466 522.221C552.475 520.515 552.206 517.196 552.043 514.725C551.938 513.118 551.932 511.5 551.916 509.891C561.756 499.339 571.909 489.325 583.112 480.199C589.68 474.849 597.668 470.489 603.44 464.27C607.332 460.076 608.462 453.84 610.846 448.758C620.504 428.176 634.864 411.213 656.413 403.11C653.291 405.567 648.727 408.559 647.969 412.735Z"/>
	<path fill="#049A6C" d="M647.969 412.735C648.097 412.679 648.227 412.625 648.354 412.567C653.532 410.203 658.545 405.852 663.331 402.646C672.613 396.426 698.077 380.531 708.902 383.978C710.35 384.44 711.159 385.126 712.053 386.357C711.556 388.983 709.355 390.578 707.203 392.007C695.513 399.771 676.53 414.75 672.023 428.317C660.408 434.128 648.494 439.256 637.058 445.437C626.731 451.019 617.001 457.788 606.197 462.418C615.349 450.772 624.03 438.762 633.649 427.489C638.097 422.277 643.607 418.004 647.969 412.735Z"/>
	<path fill="#049A6C" d="M757.112 416.202C774.29 415.804 791.725 422.505 807.591 428.437C787.919 447.98 764.709 466.16 740.878 480.358C694.12 508.216 644.691 511.704 592.563 498.466C606.442 485.639 625.297 480.597 643.579 477.97C666.281 474.639 686.434 487.76 707.082 494.884C691.997 481.568 664.729 471.26 645.663 464.365C654.399 454.987 664.836 447.744 677.062 443.708C702.418 435.337 727.003 443.622 749.816 455.098C737.863 442.877 724.455 435.167 709.501 427.373C715.2 425.913 720.732 423.715 726.368 422.01C736.435 418.964 746.642 417.157 757.112 416.202Z"/>
</svg>
