<svg aria-hidden="true" style="position: absolute; width: 0; height: 0; overflow: hidden;" version="1.1" xmlns="http://www.w3.org/2000/svg" xmlns:xlink="http://www.w3.org/1999/xlink">
<defs>
<symbol id="angle-left-circle" viewBox="0 0 32 32">
<path d="M29.312 15.992c0-7.366-5.97-13.337-13.337-13.337s-13.337 5.97-13.337 13.337 5.97 13.337 13.337 13.337 13.337-5.97 13.337-13.337zM3.706 15.992c0-6.765 5.504-12.27 12.27-12.27s12.27 5.505 12.27 12.27-5.505 12.27-12.27 12.27c-6.765 0-12.27-5.505-12.27-12.27z"></path>
<path d="M12.792 15.231l-0.754 0.754 6.035 6.035 0.754-0.754-5.281-5.281 5.256-5.256-0.754-0.754-3.013 3.013z"></path>
</symbol>
<symbol id="logo" viewBox="0 0 32 32">
<path d="M6.861 4.269c-0.368 0.566-0.818 1.442-0.94 1.851-0.053 0.181-0.111 0.572-0.128 0.858-0.029 0.537-0.018 0.607 0.298 1.752 0.093 0.333 0.181 2.762 0.099 2.68-0.029-0.029-0.146-0.397-0.257-0.812-0.111-0.42-0.263-0.934-0.345-1.15-0.333-0.923-1.080-1.909-1.752-2.312-0.368-0.222-0.987-0.444-1.413-0.508l-0.292-0.041 0.362 0.345c0.228 0.216 0.561 0.648 0.923 1.215 0.683 1.057 0.911 1.331 1.74 2.137l0.636 0.619 0.193 0.601c0.239 0.724 0.345 1.162 0.309 1.314-0.018 0.093-0.053 0.058-0.158-0.146-0.409-0.788-1.098-1.536-1.682-1.822-0.701-0.345-1.483-0.28-2.406 0.187-0.397 0.199-1.139 0.701-1.039 0.701 0.023 0 0.292-0.064 0.601-0.146s0.818-0.164 1.127-0.181l0.566-0.041 0.204 0.175c0.28 0.251 0.461 0.333 1.191 0.537 0.823 0.239 1.098 0.432 1.366 0.958l0.199 0.391-0.128 1.559c-0.070 0.858-0.134 1.571-0.146 1.582-0.012 0.006-0.064-0.093-0.123-0.234-0.053-0.14-0.146-0.304-0.21-0.374-0.234-0.251-0.958-2.067-0.823-2.067 0.152 0.006 0.549 0.683 0.999 1.693 0.053 0.128 0.058 0.117 0.023-0.088-0.047-0.321-0.245-0.759-0.625-1.366-0.175-0.286-0.368-0.66-0.426-0.835l-0.105-0.309-0.018 0.38c-0.035 0.73 0.158 1.337 0.893 2.797l0.444 0.876-0.023 1.331c-0.012 0.73-0.041 1.326-0.064 1.32s-0.199-0.251-0.385-0.537c-0.847-1.291-1.647-1.734-3.066-1.688l-0.584 0.018 0.672 0.444c0.724 0.485 1.215 0.742 1.968 1.039 0.683 0.274 0.975 0.479 1.215 0.847 0.187 0.298 0.204 0.356 0.204 0.765 0 0.391 0.012 0.444 0.105 0.426 0.088-0.018 0.105-0.117 0.14-0.747 0.041-0.847 0.327-2.096 0.596-2.616 0.199-0.385 0.718-0.73 1.553-1.028 0.613-0.222 0.888-0.397 1.209-0.771 0.333-0.391 0.999-0.847 1.378-0.958 0.444-0.123 0.38-0.175-0.199-0.175-0.485 0-0.584 0.018-1.039 0.216-0.946 0.397-1.705 0.975-2.441 1.857l-0.245 0.292 0.076-0.239c0.181-0.537 0.753-1.168 1.542-1.688l0.42-0.28v-0.648l-0.006-0.648-0.403 0.438c-0.228 0.239-0.584 0.683-0.794 0.981-0.216 0.298-0.403 0.531-0.42 0.514-0.012-0.018-0.006-0.123 0.012-0.234 0.053-0.286 0.543-1.004 1.045-1.536 0.234-0.251 0.712-0.788 1.057-1.197s0.806-0.905 1.034-1.104c0.222-0.199 0.391-0.374 0.38-0.385-0.047-0.047-1.518 0.689-1.863 0.934-0.66 0.473-1.18 1.15-1.477 1.927-0.152 0.397-0.309 0.683-0.234 0.42 0.018-0.064 0.058-0.245 0.093-0.397 0.163-0.742 0.654-1.582 1.232-2.102l0.345-0.315v-1.028c0-0.572-0.012-1.034-0.023-1.034-0.041 0-0.829 0.52-0.94 0.619-0.070 0.064-0.204 0.368-0.309 0.677-0.339 1.016-0.537 2.61-0.537 4.333-0.006 0.94 0 0.923-0.374 1.781-0.117 0.269-0.292 0.736-0.397 1.039-0.123 0.368-0.199 0.531-0.239 0.491-0.093-0.093 0.082-3.358 0.257-4.677 0.088-0.677 0.356-1.793 0.578-2.4 0.345-0.952 1.577-2.966 2.382-3.895 0.199-0.228 0.35-0.42 0.327-0.42-0.076 0-0.584 0.409-0.818 0.654-0.415 0.438-0.625 0.753-1.004 1.472-0.397 0.759-0.438 0.677-0.070-0.152 0.461-1.057 1.255-2.003 2.166-2.593 0.222-0.146 0.403-0.274 0.403-0.286 0-0.163-1.045 0.508-1.472 0.946-0.345 0.356-0.882 1.115-1.115 1.565-0.099 0.193-0.298 0.707-0.45 1.139s-0.368 1.039-0.485 1.343c-0.117 0.304-0.245 0.672-0.28 0.818l-0.070 0.263-0.047-0.175c-0.070-0.269-0.169-1.74-0.169-2.488 0-0.712-0.018-0.654 0.374-1.215 0.123-0.175 0.187-0.222 0.216-0.169 0.029 0.041 0.053 0.432 0.053 0.864 0 0.426 0.023 0.759 0.047 0.73 0.029-0.035 0.152-0.298 0.269-0.584 0.304-0.724 0.677-1.308 1.063-1.664 0.181-0.163 0.315-0.315 0.292-0.333-0.023-0.023-0.356 0-0.742 0.047s-0.718 0.064-0.73 0.047c-0.012-0.023 0.035-0.274 0.099-0.561 0.093-0.362 0.128-0.695 0.123-1.127 0-0.607-0.134-1.547-0.234-1.647-0.029-0.029-0.169 0.123-0.333 0.368zM7.223 4.888c0.088 0.747 0.041 1.337-0.152 1.956-0.204 0.636-0.438 1.185-0.526 1.238-0.134 0.082 0.269-2.733 0.496-3.486 0.064-0.204 0.134-0.088 0.181 0.292zM6.686 5.518c-0.169 0.765-0.298 1.623-0.35 2.377-0.023 0.286-0.064 0.514-0.093 0.514-0.088 0-0.239-0.607-0.269-1.104-0.035-0.537 0.035-0.952 0.251-1.489 0.187-0.461 0.566-1.127 0.59-1.045 0.018 0.041-0.041 0.374-0.128 0.747zM3.504 7.165c0.234 0.128 0.572 0.403 0.876 0.712 0.426 0.426 0.549 0.596 0.812 1.127 0.391 0.782 0.38 1.004-0.012 0.415-0.28-0.42-1.057-1.326-1.472-1.711-0.123-0.111-0.012 0.047 0.239 0.35 0.782 0.94 1.547 2.055 1.466 2.137-0.093 0.093-0.782-0.601-1.308-1.32-0.444-0.607-1.185-1.74-1.185-1.804 0-0.035-0.023-0.064-0.058-0.064-0.029 0-0.058-0.029-0.058-0.064 0-0.099 0.274-0.012 0.701 0.222zM4.409 11.031c0.216 0.111 0.502 0.321 0.73 0.555 0.526 0.537 0.619 0.736 0.181 0.397-0.245-0.199-0.724-0.479-0.8-0.479-0.029 0 0.082 0.076 0.239 0.169 0.315 0.181 0.502 0.356 0.385 0.356-0.105 0-0.94-0.234-1.139-0.315-0.099-0.041-0.286-0.164-0.415-0.269l-0.234-0.187-0.724 0.023c-0.8 0.035-0.829-0.006-0.187-0.251 0.753-0.28 1.384-0.28 1.962 0zM8.625 12.853c-0.175 0.269-0.496 0.829-0.712 1.25-0.216 0.415-0.415 0.765-0.444 0.777-0.070 0.029-0.070 0.023 0.070-0.432 0.14-0.45 0.391-0.981 0.642-1.343 0.175-0.257 0.701-0.8 0.736-0.759 0.012 0.012-0.117 0.239-0.292 0.508zM9.629 15.276c-0.099 0.123-1.279 0.999-1.717 1.273-0.193 0.123-0.409 0.274-0.479 0.345-0.076 0.064-0.152 0.105-0.169 0.082-0.053-0.053 0.636-0.759 1.051-1.080 0.572-0.438 1.547-0.899 1.314-0.619zM3.299 17.635c0.502 0.082 1.145 0.415 1.524 0.8 0.181 0.175 0.309 0.333 0.298 0.345-0.018 0.018-0.239-0.111-0.49-0.286-0.444-0.304-1.209-0.642-1.612-0.724-0.105-0.018-0.263-0.070-0.362-0.111l-0.175-0.076 0.234-0.006c0.128 0 0.391 0.029 0.584 0.058zM3.533 18.061c0.818 0.333 1.647 0.835 1.542 0.94-0.088 0.093-2.055-0.87-2.283-1.121l-0.134-0.14 0.146 0.041c0.082 0.023 0.409 0.152 0.73 0.28z"></path>
<path d="M4.146 11.387c0.047 0.029 0.117 0.058 0.146 0.058 0.035 0 0.018-0.029-0.029-0.058s-0.111-0.058-0.146-0.058c-0.029 0-0.018 0.029 0.029 0.058z"></path>
<path d="M21.693 6.885c-1.063 0.14-2.318 0.654-3.153 1.291-0.426 0.321-0.969 0.876-1.291 1.314-0.152 0.21-0.298 0.38-0.315 0.38-0.023 0-0.099-0.152-0.175-0.339-0.508-1.267-1.343-1.939-2.832-2.295-0.707-0.163-3.177-0.298-3.696-0.193-0.134 0.029-0.28 0.158-0.59 0.549-0.432 0.537-1.314 1.863-1.273 1.904 0.070 0.076 0.631-0.543 0.806-0.888l0.199-0.385 1.664 0.029c1.863 0.041 2.219 0.093 2.908 0.42 0.742 0.35 1.337 1.092 1.559 1.927 0.117 0.455 0.117 1.582 0 2.032-0.263 1.004-1.057 1.781-2.108 2.050-0.193 0.053-0.707 0.128-1.139 0.175-0.905 0.099-1.244 0.193-1.682 0.455-0.292 0.175-0.701 0.596-0.642 0.654 0.012 0.012 0.222 0 0.461-0.023 0.239-0.029 0.888-0.053 1.431-0.058 0.549 0 1.232-0.029 1.518-0.064 0.607-0.070 1.437-0.333 1.886-0.59 0.169-0.093 0.321-0.169 0.333-0.158s0.058 0.327 0.111 0.701c0.269 1.927 0.987 3.445 2.201 4.66 0.566 0.561 0.946 0.835 1.676 1.203 1.191 0.596 2.184 0.818 3.661 0.812 0.876 0 1.069-0.018 1.629-0.158 0.35-0.088 0.642-0.152 0.648-0.146 0.012 0.012 0.123 0.292 0.257 0.631 0.245 0.637 1.092 2.172 1.582 2.885 0.274 0.403 0.759 0.928 0.759 0.829 0-0.029-0.093-0.199-0.204-0.385-0.21-0.345-0.239-0.461-0.152-0.561 0.070-0.070 0.333-1.355 0.42-2.067l0.070-0.555 0.42-0.52c0.66-0.818 1.074-1.74 1.168-2.604 0.053-0.496-0.064-0.409-0.152 0.111-0.064 0.415-0.245 0.917-0.514 1.454-0.21 0.415-0.35 0.496-0.181 0.099 0.064-0.146 0.099-0.263 0.088-0.263s-0.146 0.222-0.292 0.496c-0.239 0.438-0.28 0.485-0.356 0.409s-0.082-0.298-0.023-1.676c0.035-0.876 0.076-1.653 0.088-1.728 0.018-0.076 0.257-0.426 0.526-0.788 0.531-0.707 0.829-1.226 0.993-1.734 0.222-0.707 0.596-1.273 1.051-1.623l0.175-0.128-0.251 0.035c-0.596 0.082-1.285 0.467-1.728 0.958-0.228 0.251-0.549 0.858-0.701 1.314-0.128 0.403-0.269 1.419-0.269 1.997 0 0.263-0.023 0.491-0.053 0.508-0.093 0.058-0.286-0.631-0.35-1.279-0.105-1.045-0.088-1.226 0.14-1.793 0.485-1.191 0.566-1.974 0.298-2.844-0.111-0.356-0.152-0.625-0.152-0.952 0-0.251-0.018-0.455-0.041-0.455-0.093 0-0.385 0.432-0.572 0.835-0.234 0.508-0.38 1.174-0.38 1.746 0 0.514 0.134 1.425 0.269 1.828 0.099 0.315 0.257 1.372 0.21 1.454-0.012 0.023-0.152-0.187-0.298-0.473-0.409-0.765-0.736-1.22-1.226-1.699-0.45-0.438-1.074-0.888-1.226-0.888-0.053 0-0.064 0.018-0.029 0.047 0.029 0.029 0.269 0.228 0.531 0.444 0.531 0.438 0.905 0.829 1.273 1.349 0.42 0.584 0.993 1.793 1.326 2.791l0.234 0.701-0.035 0.707c-0.111 2.073-0.327 3.708-0.596 4.473-0.134 0.385-0.257-1.366-0.257-3.755v-1.804l-0.204 0.175c-0.391 0.35-1.343 0.934-1.407 0.87-0.012-0.012 0.123-0.467 0.304-1.016 0.345-1.074 0.496-1.355 0.917-1.658l0.245-0.187-0.228 0.035c-0.642 0.099-1.436 0.747-1.67 1.366-0.070 0.187-0.158 0.502-0.193 0.701-0.035 0.204-0.082 0.368-0.105 0.368-0.064 0-0.42-0.899-0.42-1.080-0.006-0.099 0.064-0.409 0.152-0.695 0.199-0.642 0.251-1.191 0.163-1.612-0.093-0.426-0.496-1.489-0.566-1.483-0.105 0.018-0.432 1.127-0.508 1.723l-0.076 0.596-0.309-0.415c-0.169-0.234-0.426-0.526-0.578-0.654-0.309-0.274-1.127-0.701-1.343-0.701-0.152 0-0.152 0.006 0.082 0.245 0.134 0.14 0.368 0.473 0.526 0.742 0.339 0.59 0.847 1.145 1.553 1.711 0.444 0.35 0.549 0.473 0.724 0.812 0.251 0.502 0.251 0.596 0.012 0.362-0.455-0.438-1.291-0.806-1.886-0.835-0.485-0.023-0.847 0-0.847 0.047 0 0.029 0.111 0.088 0.251 0.134 0.134 0.041 0.526 0.269 0.87 0.502 0.794 0.531 1.115 0.701 1.67 0.841 0.444 0.111 0.549 0.181 0.52 0.345-0.041 0.245-1.927 0.385-2.867 0.21-1.092-0.21-1.968-0.642-2.692-1.331-0.963-0.911-1.501-1.898-1.851-3.375-0.169-0.736-0.21-2.493-0.082-3.358 0.193-1.238 0.672-2.388 1.32-3.171 0.455-0.543 0.893-0.888 1.547-1.215 0.858-0.42 1.314-0.508 2.534-0.473 1.121 0.029 1.477 0.093 2.096 0.397 0.42 0.204 0.724 0.549 1.028 1.162 0.228 0.45 0.473 1.174 0.584 1.699 0.058 0.309 0.093 0.38 0.199 0.391l0.128 0.018v-4.012l-0.274-0.064c-0.158-0.035-0.543-0.175-0.864-0.309-0.975-0.415-1.769-0.59-2.832-0.613-0.496-0.012-1.063 0-1.255 0.023zM27.743 13.028c-0.029 0.175-0.070 0.683-0.088 1.133-0.088 1.997-0.158 2.213-0.28 0.928-0.082-0.812-0.006-1.46 0.228-2.044 0.082-0.21 0.158-0.368 0.169-0.356s0 0.164-0.029 0.339zM28.14 13.407c0.064 0.257 0.123 0.636 0.123 0.847 0 0.374-0.204 1.261-0.38 1.635-0.082 0.187-0.088 0.111-0.058-1.028 0.035-1.39 0.082-2.044 0.146-1.974 0.023 0.023 0.099 0.257 0.169 0.52zM30.032 15.136c-0.438 0.461-0.724 0.882-1.004 1.472-0.152 0.327-0.321 0.683-0.38 0.794l-0.093 0.204 0.035-0.292c0.047-0.38 0.327-1.139 0.543-1.483 0.199-0.309 0.461-0.572 0.788-0.788 0.333-0.222 0.385-0.187 0.111 0.093zM30.166 15.311c-0.082 0.14-0.222 0.467-0.321 0.73-0.228 0.619-0.362 0.888-0.724 1.401-0.292 0.426-0.432 0.543-0.362 0.292 0.111-0.38 0.572-1.442 0.777-1.781 0.257-0.426 0.631-0.888 0.718-0.888 0.035 0-0.006 0.111-0.088 0.245zM24.263 17.343c0 0.765-0.018 1.378-0.041 1.355-0.088-0.088-0.28-0.928-0.28-1.209 0-0.356 0.088-0.888 0.21-1.273 0.053-0.152 0.093-0.274 0.099-0.274s0.012 0.631 0.012 1.401zM24.637 16.584c0.146 0.514 0.158 1.104 0.035 1.635-0.128 0.555-0.163 0.59-0.21 0.263-0.064-0.438-0.064-2.458 0-2.394 0.029 0.035 0.111 0.257 0.175 0.496zM22.032 16.374c0.064-0.064 0.537 0.257 0.864 0.578 0.327 0.327 1.028 1.302 0.975 1.355-0.018 0.018-0.239-0.21-0.502-0.508-0.257-0.298-0.672-0.742-0.923-0.981l-0.455-0.438 0.38 0.432c0.771 0.888 1.512 1.781 1.512 1.828 0 0.023-0.023 0.047-0.047 0.047-0.088 0-1.15-1.069-1.396-1.401-0.28-0.385-0.654-1.051-0.531-0.952 0.047 0.041 0.105 0.058 0.123 0.041zM25.985 19.334c-0.397 1.314-0.473 1.507-0.59 1.542-0.058 0.023-0.14 0.018-0.175-0.006-0.14-0.088 0.111-0.928 0.461-1.542 0.193-0.333 0.432-0.654 0.461-0.619 0.012 0.012-0.058 0.292-0.158 0.625zM25.618 19.206c-0.251 0.473-0.385 0.52-0.152 0.053 0.111-0.222 0.327-0.514 0.385-0.514 0.012 0-0.093 0.21-0.234 0.461zM22.902 19.451c0.385 0.199 1.594 0.876 1.653 0.934 0.105 0.099-0.204 0.053-0.543-0.088-0.315-0.123-1.588-0.934-1.588-1.004 0-0.047 0.222 0.029 0.479 0.158zM23.509 19.474c0.362 0.175 0.782 0.473 0.782 0.561 0 0.064-1.203-0.555-1.343-0.695-0.076-0.076-0.070-0.082 0.088-0.047 0.099 0.023 0.309 0.105 0.473 0.181zM27.171 24.28c0.018 0.397 0.012 0.701-0.018 0.683-0.175-0.111-1.46-2.616-1.46-2.85 0-0.041 0.163-0.158 0.368-0.257 0.199-0.105 0.508-0.309 0.683-0.45l0.321-0.257 0.041 1.203c0.018 0.666 0.047 1.53 0.064 1.927z"></path>
<path d="M8.35 16.928c-0.782 0.309-1.045 0.455-1.109 0.625-0.035 0.082-0.058 0.829-0.058 1.67v1.518l-0.193 0.193c-0.298 0.298-1.051 0.491-2.272 0.59l-0.514 0.035v0.339h7.883v-0.455l-1.121-0.023c-1.238-0.023-1.46-0.076-1.705-0.409-0.169-0.239-0.199-0.607-0.204-2.546-0.006-1.372-0.023-1.764-0.076-1.758-0.041 0-0.327 0.099-0.631 0.222z"></path>
<path d="M5.974 22.283c-0.041 0.111 0.082 2.89 0.14 3.107 0.058 0.234 0.163 0.099 0.152-0.199-0.070-2.266-0.111-2.966-0.175-2.99-0.041-0.012-0.093 0.023-0.117 0.082z"></path>
<path d="M6.984 22.61c-0.023 0.169-0.088 0.835-0.146 1.477-0.111 1.244-0.163 1.419-0.619 2.19-0.222 0.368 0 0.099 0.45-0.555 0.625-0.911 1.746-2.131 2.587-2.826 0.128-0.105 0.193-0.169 0.146-0.146-0.298 0.146-0.701 0.485-1.366 1.127-0.747 0.73-0.853 0.759-0.327 0.093 0.38-0.479 0.963-1.028 1.331-1.255 0.339-0.204 0.403-0.286 0.117-0.14-0.666 0.339-1.372 0.987-1.839 1.676-0.339 0.496-0.345 0.473-0.228-0.689 0.117-1.074 0.117-1.255 0.012-1.255-0.053 0-0.093 0.105-0.117 0.304z"></path>
<path d="M9.635 24.175c0 0.029 0.058 0.070 0.134 0.088 0.070 0.018 1.565 0.023 3.311 0.006 1.752-0.018 4.987-0.029 7.2-0.029 2.634-0.006 4.012-0.023 4.012-0.064s-2.482-0.058-7.328-0.058c-4.753 0-7.328 0.018-7.328 0.058z"></path>
<path d="M9.869 25.174c0.274 0.023 0.999 0.041 1.606 0.035h1.11l-0.788-0.047c-0.432-0.018-1.156-0.035-1.606-0.035-0.771 0-0.788 0.006-0.321 0.047z"></path>
<path d="M16.426 25.209c0.181 0.012 0.485 0.012 0.672 0 0.181-0.012 0.029-0.018-0.339-0.018s-0.52 0.006-0.333 0.018z"></path>
<path d="M17.623 25.209c0.041 0.018 0.093 0.012 0.111-0.006 0.023-0.018-0.012-0.035-0.076-0.029-0.064 0-0.082 0.018-0.035 0.035z"></path>
<path d="M24.572 25.209c0.041 0.018 0.093 0.012 0.111-0.006 0.023-0.018-0.012-0.035-0.076-0.029-0.064 0-0.082 0.018-0.035 0.035z"></path>
</symbol>
<symbol id="menu" viewBox="0 0 32 32">
<path d="M16 28.8c-1.029 0-1.867-0.718-1.867-1.6s0.838-1.6 1.867-1.6c1.029 0 1.867 0.718 1.867 1.6s-0.838 1.6-1.867 1.6zM16 22.4c-3.093 0-5.6 2.149-5.6 4.8s2.507 4.8 5.6 4.8c3.093 0 5.6-2.149 5.6-4.8s-2.507-4.8-5.6-4.8zM16 17.6c-1.029 0-1.867-0.718-1.867-1.6s0.838-1.6 1.867-1.6c1.029 0 1.867 0.718 1.867 1.6s-0.838 1.6-1.867 1.6zM16 11.2c-3.093 0-5.6 2.149-5.6 4.8s2.507 4.8 5.6 4.8c3.093 0 5.6-2.149 5.6-4.8s-2.507-4.8-5.6-4.8zM16 3.2c1.029 0 1.867 0.718 1.867 1.6s-0.838 1.6-1.867 1.6c-1.029 0-1.867-0.718-1.867-1.6s0.838-1.6 1.867-1.6zM16 9.6c3.093 0 5.6-2.149 5.6-4.8s-2.507-4.8-5.6-4.8c-3.093 0-5.6 2.149-5.6 4.8s2.507 4.8 5.6 4.8z"></path>
</symbol>
<symbol id="moon" viewBox="0 0 32 32">
<path d="M6.135 5.303c-0.234-0.198-0.583-0.169-0.781 0.065-0.093 0.11-0.186 0.223-0.276 0.335-0.191 0.239-0.153 0.587 0.086 0.779 0.102 0.082 0.225 0.122 0.346 0.122 0.162 0 0.323-0.071 0.433-0.207 0.084-0.104 0.17-0.209 0.258-0.312 0.198-0.234 0.169-0.583-0.065-0.781z"></path>
<path d="M30.388 25.278c-0.124-0.199-0.36-0.299-0.59-0.248-1.090 0.24-2.185 0.362-3.253 0.362-8.315 0-15.079-6.765-15.079-15.079 0-3.454 1.144-6.708 3.309-9.412 0.147-0.183 0.162-0.439 0.038-0.639s-0.36-0.299-0.59-0.249c-2.671 0.588-5.171 1.861-7.229 3.68-0.229 0.203-0.251 0.553-0.048 0.782s0.553 0.251 0.782 0.048c1.528-1.351 3.318-2.378 5.241-3.017-1.713 2.621-2.611 5.635-2.611 8.806 0 4.324 1.684 8.389 4.741 11.446s7.122 4.741 11.446 4.741c0.632 0 1.272-0.040 1.914-0.118-2.828 2.884-6.665 4.51-10.744 4.51-8.315 0-15.079-6.764-15.079-15.079 0-2.162 0.448-4.249 1.332-6.202 0.126-0.279 0.002-0.607-0.276-0.733s-0.607-0.002-0.733 0.276c-0.949 2.098-1.431 4.338-1.431 6.659 0 4.324 1.684 8.389 4.741 11.446s7.122 4.741 11.446 4.741c4.934 0 9.54-2.217 12.635-6.083 0.147-0.183 0.162-0.439 0.038-0.639z"></path>
</symbol>
<symbol id="sun" viewBox="0 0 32 32">
<path d="M16 7.001c-4.971 0-9 4.029-9 9s4.029 9 9 9 9-4.029 9-9-4.029-9-9-9zM16 24.001c-4.418 0-8-3.582-8-8s3.582-8 8-8 8 3.582 8 8-3.581 8-8 8z"></path>
<path d="M16 10.001c-0.277 0-0.5 0.223-0.5 0.5s0.223 0.5 0.5 0.5c2.761 0 5 2.239 5 5 0 0.276 0.224 0.5 0.5 0.5s0.5-0.224 0.5-0.5c0-3.313-2.686-6-6-6z"></path>
<path d="M31.5 15.5h-5c-0.276 0-0.5 0.223-0.5 0.5s0.224 0.5 0.5 0.5h5c0.276 0 0.5-0.224 0.5-0.5s-0.224-0.5-0.5-0.5z"></path>
<path d="M5.729 18.235l-1.931 0.517c-0.267 0.072-0.425 0.346-0.353 0.613s0.345 0.425 0.613 0.353l1.931-0.517c0.266-0.072 0.425-0.345 0.354-0.613-0.072-0.267-0.346-0.425-0.612-0.354z"></path>
<path d="M24.66 11c0.139 0.239 0.444 0.322 0.683 0.183l4.33-2.5c0.239-0.138 0.322-0.444 0.183-0.683-0.137-0.239-0.444-0.321-0.683-0.183l-4.33 2.5c-0.239 0.139-0.321 0.443-0.183 0.682z"></path>
<path d="M8.929 23.072c-0.195-0.195-0.511-0.195-0.707 0l-1.414 1.414c-0.196 0.195-0.195 0.512 0 0.707s0.511 0.195 0.707-0l1.414-1.414c0.196-0.195 0.196-0.512 0-0.707z"></path>
<path d="M21 7.34c0.239 0.138 0.545 0.056 0.683-0.183l2.5-4.33c0.139-0.24 0.056-0.546-0.183-0.683s-0.544-0.056-0.683 0.183l-2.5 4.331c-0.139 0.239-0.057 0.545 0.182 0.683z"></path>
<path d="M13.412 25.659c-0.266-0.072-0.54 0.088-0.613 0.354l-0.518 1.931c-0.072 0.267 0.088 0.541 0.354 0.613s0.54-0.087 0.611-0.354l0.518-1.931c0.072-0.265-0.086-0.54-0.354-0.613z"></path>
<path d="M16 6c0.277 0 0.5-0.223 0.501-0.5v-5c0-0.277-0.224-0.5-0.501-0.5-0.275 0-0.499 0.224-0.499 0.5l0.001 5c0 0.277 0.223 0.5 0.499 0.5z"></path>
<path d="M19.201 26.012c-0.070-0.266-0.345-0.425-0.613-0.354-0.267 0.072-0.424 0.346-0.354 0.613l0.517 1.931c0.072 0.267 0.346 0.425 0.613 0.354s0.424-0.345 0.352-0.613l-0.517-1.931z"></path>
<path d="M10.319 7.156c0.137 0.239 0.444 0.322 0.681 0.183 0.24-0.138 0.322-0.444 0.184-0.684l-2.5-4.33c-0.138-0.239-0.444-0.321-0.684-0.183-0.239 0.138-0.321 0.444-0.183 0.683l2.501 4.33z"></path>
<path d="M23.779 23.071c-0.194-0.195-0.511-0.195-0.707 0s-0.194 0.512 0 0.707l1.414 1.414c0.196 0.196 0.512 0.195 0.707-0s0.195-0.511-0-0.706l-1.414-1.414z"></path>
<path d="M2.327 8.682l4.331 2.499c0.239 0.138 0.544 0.056 0.681-0.182s0.058-0.545-0.182-0.684l-4.33-2.5c-0.239-0.138-0.545-0.056-0.683 0.184-0.137 0.239-0.055 0.544 0.183 0.682z"></path>
<path d="M26.014 19.2l1.931 0.517c0.267 0.073 0.541-0.088 0.613-0.355s-0.086-0.54-0.354-0.611l-1.931-0.517c-0.265-0.073-0.541 0.087-0.613 0.354s0.088 0.541 0.354 0.613z"></path>
<path d="M6 16c0-0.277-0.223-0.5-0.499-0.501l-5.001 0.001c-0.276 0-0.5 0.223-0.5 0.5 0.001 0.276 0.224 0.5 0.5 0.5l5-0.001c0.276 0 0.5-0.223 0.499-0.499z"></path>
<path d="M26.273 13.764l1.931-0.518c0.267-0.072 0.425-0.347 0.353-0.614-0.071-0.265-0.344-0.424-0.612-0.352l-1.931 0.518c-0.267 0.070-0.425 0.345-0.354 0.613 0.070 0.267 0.346 0.424 0.613 0.354z"></path>
<path d="M7.34 21c-0.138-0.24-0.443-0.322-0.683-0.184l-4.33 2.501c-0.239 0.138-0.322 0.443-0.183 0.683 0.139 0.238 0.445 0.32 0.683 0.183l4.33-2.501c0.239-0.137 0.322-0.442 0.183-0.681z"></path>
<path d="M23.072 8.928c0.195 0.196 0.511 0.194 0.707 0l1.414-1.414c0.196-0.196 0.195-0.512-0.001-0.707-0.194-0.195-0.511-0.196-0.706 0l-1.414 1.414c-0.196 0.194-0.195 0.512 0 0.707z"></path>
<path d="M11 24.66c-0.239-0.139-0.544-0.056-0.682 0.182l-2.5 4.331c-0.138 0.239-0.058 0.544 0.182 0.683 0.239 0.137 0.545 0.055 0.684-0.183l2.499-4.331c0.138-0.238 0.057-0.543-0.182-0.681z"></path>
<path d="M18.589 6.34c0.265 0.072 0.539-0.088 0.613-0.354l0.517-1.931c0.072-0.268-0.088-0.542-0.355-0.612-0.265-0.072-0.54 0.086-0.611 0.353l-0.517 1.932c-0.073 0.266 0.087 0.54 0.354 0.612z"></path>
<path d="M16 26c-0.277-0.001-0.499 0.223-0.5 0.499l0.001 5.002c0 0.275 0.222 0.499 0.499 0.499 0.276 0 0.5-0.224 0.5-0.5l-0.002-5.001c0-0.276-0.221-0.499-0.499-0.499z"></path>
<path d="M12.8 5.987c0.069 0.266 0.345 0.425 0.613 0.354 0.266-0.071 0.423-0.346 0.354-0.612l-0.518-1.931c-0.072-0.268-0.347-0.425-0.614-0.353-0.265 0.071-0.425 0.344-0.352 0.612l0.518 1.931z"></path>
<path d="M21.681 24.843c-0.137-0.239-0.442-0.322-0.681-0.183-0.239 0.137-0.32 0.442-0.183 0.682l2.502 4.331c0.137 0.239 0.442 0.322 0.681 0.183s0.321-0.445 0.183-0.683l-2.502-4.329z"></path>
<path d="M8.222 8.928c0.194 0.197 0.511 0.195 0.707 0s0.194-0.511 0-0.707l-1.414-1.414c-0.197-0.196-0.513-0.195-0.707 0.001-0.195 0.194-0.196 0.51 0 0.706l1.414 1.414z"></path>
<path d="M29.674 23.317l-4.331-2.498c-0.239-0.138-0.544-0.058-0.681 0.183-0.139 0.238-0.056 0.543 0.182 0.682l4.332 2.5c0.238 0.137 0.543 0.058 0.681-0.183 0.137-0.239 0.055-0.545-0.183-0.683z"></path>
<path d="M5.987 12.8l-1.932-0.518c-0.268-0.072-0.542 0.088-0.612 0.354-0.072 0.265 0.086 0.54 0.353 0.613l1.932 0.517c0.266 0.073 0.54-0.088 0.612-0.354s-0.088-0.539-0.353-0.612z"></path>
</symbol>
<symbol id="user-settings" viewBox="0 0 32 32">
<path d="M28.453 21.028c0.111-0.604 0.111-1.222 0-1.826l1.106-0.639c0.129-0.073 0.184-0.223 0.141-0.364-0.287-0.926-0.78-1.766-1.423-2.46-0.099-0.107-0.257-0.133-0.386-0.060l-1.106 0.639c-0.467-0.399-1.003-0.707-1.582-0.913v-1.277c0-0.146-0.103-0.274-0.244-0.304-0.956-0.214-1.929-0.206-2.837 0-0.141 0.030-0.244 0.159-0.244 0.304v1.277c-0.579 0.206-1.114 0.514-1.582 0.913l-1.106-0.639c-0.124-0.073-0.287-0.047-0.386 0.060-0.643 0.694-1.136 1.534-1.423 2.46-0.043 0.142 0.017 0.291 0.141 0.364l1.106 0.639c-0.111 0.604-0.111 1.222 0 1.826l-1.106 0.639c-0.129 0.073-0.184 0.223-0.141 0.364 0.287 0.926 0.78 1.762 1.423 2.46 0.099 0.107 0.257 0.133 0.386 0.060l1.106-0.639c0.467 0.399 1.003 0.707 1.582 0.913v1.277c0 0.146 0.103 0.274 0.244 0.304 0.956 0.214 1.929 0.206 2.837 0 0.141-0.030 0.244-0.159 0.244-0.304v-1.277c0.579-0.206 1.114-0.514 1.582-0.913l1.106 0.639c0.124 0.073 0.287 0.047 0.386-0.060 0.643-0.694 1.136-1.534 1.423-2.46 0.043-0.142-0.017-0.291-0.141-0.364l-1.106-0.639zM23.545 22.194c-1.149 0-2.079-0.934-2.079-2.079s0.934-2.079 2.079-2.079c1.144 0 2.079 0.934 2.079 2.079s-0.93 2.079-2.079 2.079zM11.887 16c3.030 0 5.486-2.456 5.486-5.486s-2.456-5.486-5.486-5.486c-3.030 0-5.486 2.456-5.486 5.486s2.456 5.486 5.486 5.486zM20.511 25.708c-0.099-0.051-0.197-0.112-0.291-0.167l-0.339 0.197c-0.257 0.146-0.549 0.227-0.84 0.227-0.467 0-0.917-0.197-1.239-0.54-0.784-0.849-1.384-1.882-1.723-2.983-0.236-0.759 0.081-1.56 0.767-1.959l0.339-0.197c-0.004-0.111-0.004-0.223 0-0.334l-0.339-0.197c-0.686-0.394-1.003-1.2-0.767-1.959 0.039-0.124 0.094-0.249 0.137-0.373-0.163-0.014-0.321-0.051-0.489-0.051h-0.716c-0.952 0.437-2.010 0.686-3.125 0.686s-2.169-0.249-3.125-0.686h-0.716c-3.18-0-5.761 2.58-5.761 5.761v1.783c0 1.136 0.922 2.057 2.057 2.057h15.087c0.433 0 0.836-0.137 1.166-0.364-0.051-0.163-0.086-0.33-0.086-0.506v-0.394z"></path>
</symbol>
</defs>
</svg>
